<?xml version="1.0" encoding="UTF-8" standalone="no"?>
<!-- Created with Inkscape (http://www.inkscape.org/) -->

<svg
   width="200mm"
   height="100mm"
   viewBox="0 0 200 100"
   version="1.1"
   id="svg5"
   inkscape:version="1.2.1 (9c6d41e4, 2022-07-14)"
   sodipodi:docname="rainbow.svg"
   xmlns:inkscape="http://www.inkscape.org/namespaces/inkscape"
   xmlns:sodipodi="http://sodipodi.sourceforge.net/DTD/sodipodi-0.dtd"
   xmlns="http://www.w3.org/2000/svg"
   xmlns:svg="http://www.w3.org/2000/svg">
  <sodipodi:namedview
     id="namedview7"
     pagecolor="#505050"
     bordercolor="#eeeeee"
     borderopacity="1"
     inkscape:showpageshadow="0"
     inkscape:pageopacity="0"
     inkscape:pagecheckerboard="0"
     inkscape:deskcolor="#505050"
     inkscape:document-units="mm"
     showgrid="false"
     inkscape:zoom="1.1172681"
     inkscape:cx="326.68972"
     inkscape:cy="167.82006"
     inkscape:window-width="1680"
     inkscape:window-height="997"
     inkscape:window-x="0"
     inkscape:window-y="25"
     inkscape:window-maximized="0"
     inkscape:current-layer="layer1" />
  <defs
     id="defs2" />
  <g
     inkscape:label="Lag 1"
     inkscape:groupmode="layer"
     id="layer1">
    <path
       style="display:inline;fill:#f7ff9c;fill-opacity:0.462264;stroke:none;stroke-width:0.264583px;stroke-linecap:butt;stroke-linejoin:miter;stroke-opacity:0.995283"
       d="M 0,3 C 6.6767007,1.8488447 18.612912,0.5289867 52,0 94.371589,-0.6713376 129.33118,6.9708089 142.82086,6.8270571 153.28469,6.7155501 191.94191,5.0720795 200,3 v 93 c 0,0 -36.04323,3.559868 -62.70469,3.539538 C 111.32333,99.519734 82.86579,93.515985 53.381386,93.323565 25.224527,93.139808 0,96 0,96 Z"
       id="path956"
       sodipodi:nodetypes="cssccsscc"
       inkscape:label="c1"
       sodipodi:insensitive="true" />
    <path
       style="display:inline;fill:#fff18c;fill-opacity:0.773585;stroke:none;stroke-width:0.264583px;stroke-linecap:butt;stroke-linejoin:miter;stroke-opacity:1"
       d="M 0,13 C 0,13 21.502353,8.0099899 49.039216,6.8047501 79.261623,5.4819687 92.259031,6.0120425 126.08959,13.347312 151.10575,18.771411 200,13 200,13 v 78 c 0,0 -82.67817,14.07819 -71.35165,-3.028273 C 134.12663,79.697874 88.467585,89.44511 59.860075,88.07208 35.296336,86.893133 0,91 0,91 Z"
       id="path2515"
       sodipodi:nodetypes="cssccsscc"
       inkscape:label="c2"
       sodipodi:insensitive="true" />
    <path
       style="fill:#ff5eeb;fill-opacity:0.764151;stroke:none;stroke-width:0.264583px;stroke-linecap:butt;stroke-linejoin:miter;stroke-opacity:1"
       d="m 0,19 c 0,0 25.773103,-5.313715 59.629844,-6.676701 26.467095,-1.065497 50.882646,6.851473 83.799086,8.072275 C 171.38386,21.432363 200,19 200,19 v 67 c 0,0 -38.82243,6.70305 -48.68789,2.904729 C 142.21752,85.403202 137.492,77.66485 121.54958,79.22027 90.680653,82.231993 51.946586,82.068248 43.51367,82.086072 21.659066,82.132266 0,86 0,86 Z"
       id="path10677"
       sodipodi:nodetypes="cssccssscc"
       inkscape:label="c3"
       sodipodi:insensitive="true" />
    <path
       style="fill:#bc00a5;fill-opacity:0.764151;stroke:none;stroke-width:0.264583px;stroke-linecap:butt;stroke-linejoin:miter;stroke-opacity:1"
       d="m 0,26 c 0,0 29.547777,-4.720297 54.564761,-6.44647 21.091078,-1.455285 26.058719,8.155395 40.811456,10.71866 20.321693,3.530862 40.561303,0.968566 57.041463,0.163728 C 168.02302,29.651168 200,26 200,26 v 54 c 0,0 -25.17859,3.189421 -48.28745,-2.709666 C 126.31686,70.807475 64.846532,76.775929 44.204363,77.237227 10.860897,77.982367 0,80 0,80 Z"
       id="path21667"
       sodipodi:nodetypes="csscccsscc"
       inkscape:label="c4" />
    <path
       style="fill:#6900bc;fill-opacity:0.764151;stroke:none;stroke-width:0.264583px;stroke-linecap:butt;stroke-linejoin:miter;stroke-opacity:1"
       d="M 0,35 C 0,35 71.796042,8.2876446 70.220473,41.6767 69.190923,63.494662 94.81438,32.629589 147.59101,38.007004 171.38659,40.431537 200,35 200,35 v 38 c 0,0 -46.45724,-6.207619 -60.47998,-6.44647 C 119.48569,66.212284 76.031084,72.612638 47.673618,73.66502 24.923944,74.509289 0,73 0,73 Z"
       id="path25331"
       sodipodi:nodetypes="cssccsscc"
       inkscape:label="c5"
       sodipodi:insensitive="true" />
    <path
       sodipodi:type="star"
       style="fill:#ffffd9;fill-opacity:0.764151;stroke:none;stroke-width:0.264583;stroke-opacity:0.995283"
       id="path28785"
       inkscape:flatsided="false"
       sodipodi:sides="6"
       sodipodi:cx="136.16733"
       sodipodi:cy="54.230118"
       sodipodi:r1="3.1859899"
       sodipodi:r2="0.66905779"
       sodipodi:arg1="0.83798123"
       sodipodi:arg2="1.36158"
       inkscape:rounded="0"
       inkscape:randomized="0"
       d="m 138.29864,56.598245 -1.99235,-1.713659 -1.12416,2.375368 0.48789,-2.58226 -2.61921,0.214133 2.48025,-0.868601 -1.49505,-2.161236 1.99236,1.713659 1.12416,-2.375368 -0.4879,2.582261 2.61921,-0.214133 -2.48025,0.868601 z"
       inkscape:transform-center-x="1.7154939e-06" />
    <path
       sodipodi:type="star"
       style="fill:#ffffd9;fill-opacity:0.764151;stroke:none;stroke-width:0.264583;stroke-opacity:0.995283"
       id="path28787"
       inkscape:flatsided="false"
       sodipodi:sides="6"
       sodipodi:cx="112.72287"
       sodipodi:cy="62.281757"
       sodipodi:r1="4.0327759"
       sodipodi:r2="0.84688288"
       sodipodi:arg1="1.5120405"
       sodipodi:arg2="2.0356393"
       inkscape:rounded="0"
       inkscape:randomized="0"
       d="m 112.95968,66.307574 -0.61645,-3.268795 -2.98841,1.460973 2.52263,-2.168264 -2.75945,-1.857553 3.13909,1.100531 0.22897,-3.318525 0.61645,3.268795 2.98841,-1.460973 -2.52263,2.168264 2.75945,1.857553 -3.13909,-1.100531 z"
       inkscape:transform-center-x="1.4201307e-06" />
  </g>
  <g
     inkscape:groupmode="layer"
     id="layer2"
     inkscape:label="stars">
    <path
       sodipodi:type="star"
       style="fill:#ffffd9;fill-opacity:0.76415092;stroke:none;stroke-width:0.264583;stroke-opacity:0.995283"
       id="path26883"
       inkscape:flatsided="false"
       sodipodi:sides="6"
       sodipodi:cx="46.967133"
       sodipodi:cy="38.448586"
       sodipodi:r1="7.5521402"
       sodipodi:r2="3.7760701"
       sodipodi:arg1="0.9151007"
       sodipodi:arg2="1.4386995"
       inkscape:rounded="0"
       inkscape:randomized="0"
       d="m 51.571754,44.434593 -4.107264,-2.242835 -3.379081,3.23755 -0.11128,-4.678412 -4.493342,-1.307595 3.995984,-2.435578 -1.11426,-4.545145 4.107264,2.242835 3.379082,-3.23755 0.111279,4.678412 4.493342,1.307595 -3.995984,2.435578 z" />
    <path
       sodipodi:type="star"
       style="fill:#ffffd9;fill-opacity:0.764151;stroke:none;stroke-width:0.264583;stroke-opacity:0.995283"
       id="path28029"
       inkscape:flatsided="false"
       sodipodi:sides="6"
       sodipodi:cx="20.030102"
       sodipodi:cy="73.44371"
       sodipodi:r1="7.7905235"
       sodipodi:r2="3.895262"
       sodipodi:arg1="1.9018924"
       sodipodi:arg2="2.4254912"
       inkscape:rounded="0"
       inkscape:randomized="0"
       d="m 17.49756,80.811104 -0.40593,-4.810354 -4.708149,-1.066588 3.962924,-2.756723 -1.430383,-4.610671 4.368854,2.053632 3.277767,-3.544083 0.40593,4.810354 4.70815,1.066588 -3.962924,2.756722 1.430382,4.610672 -4.368854,-2.053632 z" />
    <path
       sodipodi:type="star"
       style="fill:#ffffd9;fill-opacity:0.764151;stroke:none;stroke-width:0.264583;stroke-opacity:0.995283"
       id="path28031"
       inkscape:flatsided="false"
       sodipodi:sides="6"
       sodipodi:cx="167.60822"
       sodipodi:cy="27.857958"
       sodipodi:r1="8.1366405"
       sodipodi:r2="4.0683208"
       sodipodi:arg1="1.1324598"
       sodipodi:arg2="1.6560585"
       inkscape:rounded="0"
       inkscape:randomized="0"
       d="m 171.06168,35.225352 -3.79992,-3.313852 -4.30716,2.620944 0.96992,-4.947753 -4.42339,-2.419641 4.76984,-1.633901 -0.11622,-5.040585 3.79992,3.313852 4.30716,-2.620944 -0.96992,4.947753 4.42339,2.419641 -4.76984,1.633901 z"
       inkscape:transform-center-x="2.1115995e-06" />
    <path
       sodipodi:type="star"
       style="fill:#ffffd9;fill-opacity:0.764151;stroke:none;stroke-width:0.264583;stroke-opacity:0.995283"
       id="path28033"
       inkscape:flatsided="false"
       sodipodi:sides="6"
       sodipodi:cx="172.21281"
       sodipodi:cy="68.378624"
       sodipodi:r1="6.4464698"
       sodipodi:r2="3.2232351"
       sodipodi:arg1="1.5707963"
       sodipodi:arg2="2.0943951"
       inkscape:rounded="0"
       inkscape:randomized="0"
       d="m 172.21281,74.825094 -1.61161,-3.655067 -3.97119,0.431832 2.35957,-3.223235 -2.35957,-3.223235 3.97119,0.431831 1.61161,-3.655066 1.61162,3.655066 3.97119,-0.431831 -2.35957,3.223235 2.35957,3.223235 -3.97119,-0.431832 z"
       inkscape:transform-center-x="2.1696104e-06" />
    <path
       sodipodi:type="star"
       style="fill:#ffffd9;fill-opacity:0.764151;stroke:none;stroke-width:0.264583;stroke-opacity:0.995283"
       id="path28035"
       inkscape:flatsided="false"
       sodipodi:sides="6"
       sodipodi:cx="106.13159"
       sodipodi:cy="43.559677"
       sodipodi:r1="2.218787"
       sodipodi:r2="1.1093934"
       sodipodi:arg1="1.3521274"
       sodipodi:arg2="1.8757262"
       inkscape:rounded="0"
       inkscape:randomized="0"
       d="m 106.61291,45.725628 -0.81439,-1.107736 -1.30204,0.441598 0.55214,-1.259152 -1.03346,-0.906799 1.36653,-0.151416 0.26858,-1.348397 0.81439,1.107736 1.30204,-0.441598 -0.55213,1.259152 1.03345,0.906799 -1.36652,0.151416 z"
       inkscape:transform-center-x="1.337091e-06" />
    <path
       sodipodi:type="star"
       style="fill:#ffffd9;fill-opacity:0.764151;stroke:none;stroke-width:0.264583;stroke-opacity:0.995283"
       id="path28037"
       inkscape:flatsided="false"
       sodipodi:sides="6"
       sodipodi:cx="80.042709"
       sodipodi:cy="58.492752"
       sodipodi:r1="4.3214269"
       sodipodi:r2="0.90749967"
       sodipodi:arg1="1.4056476"
       sodipodi:arg2="1.9292464"
       inkscape:rounded="0"
       inkscape:randomized="0"
       d="m 80.753148,62.755381 -1.028811,-3.412808 -3.017954,1.896751 2.441174,-2.59738 -3.151612,-1.665249 3.469984,0.815429 -0.133658,-3.562001 1.02881,3.412809 3.017954,-1.896752 -2.441173,2.59738 3.151612,1.665249 -3.469984,-0.815428 z"
       inkscape:transform-center-x="1.0084121e-06" />
    <path
       sodipodi:type="star"
       style="fill:#ffffd9;fill-opacity:0.764151;stroke:none;stroke-width:0.264583;stroke-opacity:0.995283"
       id="path28781"
       inkscape:flatsided="false"
       sodipodi:sides="6"
       sodipodi:cx="20.365898"
       sodipodi:cy="44.520798"
       sodipodi:r1="9.7898521"
       sodipodi:r2="2.0558689"
       sodipodi:arg1="1.0096329"
       sodipodi:arg2="1.5332317"
       inkscape:rounded="0"
       inkscape:randomized="0"
       d="m 25.575779,52.809244 -5.132671,-6.234028 -4.650275,6.601694 2.832491,-7.562037 -8.042372,-0.726409 7.965163,-1.32801 -3.392098,-7.328103 5.132671,6.234028 4.650275,-6.601694 -2.832491,7.562038 8.042372,0.726409 -7.965162,1.328009 z" />
    <path
       sodipodi:type="star"
       style="fill:#ffffd9;fill-opacity:0.764151;stroke:none;stroke-width:0.264583;stroke-opacity:0.995283"
       id="path28783"
       inkscape:flatsided="false"
       sodipodi:sides="6"
       sodipodi:cx="94.725105"
       sodipodi:cy="19.181833"
       sodipodi:r1="12.28919"
       sodipodi:r2="2.5807297"
       sodipodi:arg1="0.4377913"
       sodipodi:arg2="0.96139008"
       inkscape:rounded="0"
       inkscape:randomized="0"
       d="m 105.8553,24.391714 -9.653035,-3.093713 -0.423949,10.127808 -2.147286,-9.906634 -8.982913,4.696754 7.505754,-6.812921 -8.558965,-5.431055 9.653039,3.093713 0.423949,-10.1278086 2.147286,9.9066346 8.98291,-4.696754 -7.50575,6.812921 z"
       inkscape:transform-center-x="1.1933871e-06" />
  </g>
</svg>
